<svg width="45" height="38" viewBox="0 0 45 38" fill="none" xmlns="http://www.w3.org/2000/svg">
<path d="M28.031 23.46L32.314 27.742L30.899 29.157L26.617 24.874C25.0237 26.1512 23.042 26.8459 21 26.843C16.032 26.843 12 22.811 12 17.843C12 12.875 16.032 8.84302 21 8.84302C25.968 8.84302 30 12.875 30 17.843C30.0029 19.885 29.3082 21.8668 28.031 23.46ZM26.025 22.718C27.2941 21.4129 28.0029 19.6634 28 17.843C28 13.976 24.867 10.843 21 10.843C17.133 10.843 14 13.976 14 17.843C14 21.71 17.133 24.843 21 24.843C22.8204 24.8459 24.5699 24.1371 25.875 22.868L26.025 22.718Z" fill="black"/>
</svg>
